<svg xmlns="http://www.w3.org/2000/svg" width="682.667" height="682.667" version="1.0" viewBox="0 0 512 512">
  <path d="M235 1C171.2 7.1 115.4 33.7 72 78.6 34 118 9.9 167.9 2.4 222.6c-2.1 15.6-2.4 48.2-.5 62.9C7 326 21 364.2 42.8 397.1 84.1 459 148.7 499.5 222.6 509.6c15.6 2.1 48.2 2.4 62.9.5 40.5-5.1 78.7-19.1 111.6-40.9 61.9-41.3 102.4-105.9 112.5-179.8 2.4-17.5 2.4-49.3 0-66.8C494.9 115.1 416.2 29.8 309.9 6 289.1 1.3 255.3-.9 235 1zm35 75c56.5 5 105.7 34.5 137 82 42.7 65 37.8 151.6-12 212.6-36.7 44.9-96.2 70.2-153.3 65.4-32.8-2.8-59.9-12.2-87.1-30.3-14.9-10-36.7-31.2-46.6-45.5-12.8-18.3-22.4-38.9-27.5-59.1-2.7-10.7-5.6-29-4.8-30.4.2-.4 60.5-.7 133.9-.7H343v-29H75.1l.4-2.8c.3-1.5.9-6.1 1.5-10.2 3.7-25.6 14.8-53 31-76.2 9.2-13.3 31.7-35.4 45.1-44.5C188.7 83.2 229 72.4 270 76z"/>
</svg>
